<?xml version="1.0" standalone="no"?>
<!DOCTYPE svg PUBLIC "-//W3C//DTD SVG 20010904//EN"
 "http://www.w3.org/TR/2001/REC-SVG-20010904/DTD/svg10.dtd">
<svg version="1.0" xmlns="http://www.w3.org/2000/svg"
 width="2000.000000pt" height="2000.000000pt" viewBox="0 0 2000.000000 2000.000000"
 preserveAspectRatio="xMidYMid meet">
<metadata>
Created by potrace 1.14, written by Peter Selinger 2001-2017
</metadata>
<g transform="translate(0.000000,2000.000000) scale(0.100000,-0.100000)"
fill="#000000" stroke="none">
<path d="M8540 19292 c0 -4 41 -113 91 -242 50 -129 106 -278 125 -330 19 -52
39 -104 44 -115 20 -44 40 -98 40 -107 0 -6 -7 -7 -17 -4 -9 4 -32 9 -52 12
-20 3 -38 7 -41 9 -7 4 -166 32 -235 41 -27 3 -58 8 -67 9 -16 4 -71 9 -248
24 -89 8 -773 6 -850 -3 -19 -2 -74 -7 -122 -10 -47 -4 -95 -8 -105 -10 -10
-2 -52 -7 -93 -10 -41 -4 -120 -13 -175 -21 -55 -8 -122 -17 -150 -20 -27 -3
-75 -10 -105 -15 -30 -5 -72 -12 -94 -16 -21 -3 -48 -7 -60 -10 -11 -2 -84
-15 -161 -30 -77 -14 -141 -26 -142 -28 -3 -2 42 -26 360 -190 70 -36 124 -66
120 -67 -4 0 -17 -2 -28 -4 -11 -2 -38 -6 -61 -10 -22 -3 -52 -8 -65 -10 -13
-2 -40 -6 -59 -9 -19 -3 -45 -8 -56 -10 -12 -2 -37 -7 -55 -10 -59 -9 -229
-45 -292 -62 -59 -15 -74 -19 -116 -28 -134 -30 -389 -126 -563 -213 -294
-146 -514 -198 -835 -196 -79 0 -143 -3 -143 -7 0 -15 49 -149 70 -190 31 -62
85 -126 132 -157 l39 -26 -43 -14 c-88 -29 -311 -146 -434 -228 -137 -92 -217
-157 -332 -271 l-73 -72 -77 116 c-42 65 -80 124 -84 132 -4 8 -43 69 -87 135
-44 66 -107 163 -141 215 -179 279 -210 325 -217 320 -4 -3 -8 -12 -8 -20 -1
-8 -5 -31 -8 -50 -4 -19 -9 -53 -12 -75 -4 -22 -8 -47 -10 -55 -3 -8 -7 -33
-10 -55 -3 -22 -11 -67 -17 -100 -5 -33 -12 -72 -14 -87 -4 -27 -8 -52 -20
-120 -3 -18 -9 -58 -14 -88 -5 -30 -12 -73 -15 -95 -4 -22 -8 -47 -10 -55 -3
-8 -7 -33 -10 -55 -3 -22 -7 -51 -10 -65 -3 -14 -8 -47 -11 -75 -3 -27 -10
-69 -14 -93 -9 -51 -6 -514 4 -622 l7 -75 -46 115 c-25 63 -59 151 -76 195
-71 183 -210 412 -334 551 -160 179 -349 337 -567 474 -120 75 -443 240 -573
293 -309 124 -285 114 -345 140 -19 8 -93 39 -165 67 -71 29 -143 58 -160 65
-184 78 -184 78 -166 34 6 -13 40 -109 76 -214 37 -104 87 -246 111 -315 25
-69 47 -132 49 -141 7 -32 122 -318 169 -421 131 -285 354 -876 391 -1038 2
-8 15 -57 29 -109 22 -80 46 -194 82 -386 4 -22 8 -49 9 -60 1 -11 6 -47 10
-80 12 -93 13 -118 19 -295 9 -251 16 -311 53 -480 43 -195 118 -402 216 -594
22 -44 40 -85 40 -90 0 -6 -28 -67 -61 -136 -34 -68 -59 -127 -56 -130 3 -3
67 -5 142 -6 75 -1 142 -2 148 -3 6 0 23 -19 37 -40 14 -22 62 -84 107 -139
44 -55 80 -103 80 -105 0 -3 -6 -12 -13 -19 -6 -7 -37 -42 -67 -78 -30 -36
-57 -67 -60 -70 -21 -20 -154 -188 -233 -295 -53 -71 -100 -134 -105 -140 -52
-68 -262 -396 -355 -555 -101 -175 -303 -568 -384 -750 -11 -25 -30 -66 -42
-92 -128 -285 -305 -770 -421 -1152 -84 -279 -234 -863 -266 -1036 -3 -14 -7
-33 -10 -42 -3 -9 -6 -25 -8 -35 -3 -10 -18 -77 -35 -150 -17 -72 -33 -142
-35 -155 -3 -13 -7 -32 -10 -43 -32 -131 -85 -370 -82 -372 1 -1 27 12 57 31
30 18 135 79 234 136 99 56 197 113 217 126 37 24 64 32 54 16 -2 -4 -7 -28
-11 -52 -3 -25 -10 -70 -15 -100 -5 -30 -12 -82 -16 -115 -3 -33 -8 -68 -10
-79 -2 -10 -6 -53 -10 -95 -3 -42 -8 -94 -10 -116 -28 -326 -23 -823 10 -1155
4 -36 9 -76 11 -90 3 -14 7 -53 10 -88 4 -35 8 -71 10 -81 2 -9 7 -44 11 -76
4 -33 9 -62 9 -65 5 -17 19 -100 50 -290 19 -118 37 -226 40 -240 7 -41 26
-154 29 -175 26 -172 40 -251 46 -258 4 -4 22 9 40 30 38 44 171 191 215 238
17 18 58 64 92 102 34 38 74 83 90 100 15 17 49 54 76 82 26 29 47 51 47 49 0
-3 -35 -120 -91 -308 -11 -36 -21 -69 -23 -75 -1 -5 -8 -30 -15 -55 -7 -25
-24 -81 -38 -125 -14 -44 -29 -93 -33 -110 -8 -29 -63 -218 -94 -317 -9 -33
-10 -46 -3 -41 12 6 197 153 207 163 3 3 48 39 100 80 52 41 97 77 100 80 3 3
128 103 277 223 243 193 273 214 277 194 3 -12 9 -49 15 -82 6 -33 18 -96 27
-140 9 -44 18 -91 20 -105 2 -14 7 -38 11 -55 4 -16 8 -34 9 -40 10 -47 71
-281 95 -365 159 -552 420 -1131 717 -1590 56 -86 202 -298 227 -329 8 -9 31
-38 51 -66 81 -107 195 -256 297 -389 59 -76 107 -142 107 -147 0 -4 13 -21
29 -36 15 -15 64 -75 108 -133 44 -58 108 -142 142 -188 35 -46 65 -81 67 -79
5 4 13 176 29 562 3 77 8 181 10 230 2 50 7 164 11 255 4 91 8 181 9 200 2 19
3 77 4 129 l1 94 68 -73 c440 -480 986 -926 1562 -1279 47 -28 92 -56 100 -61
38 -23 152 -88 240 -138 59 -33 412 -232 470 -264 319 -180 339 -190 327 -171
-3 5 -9 25 -12 44 -7 40 -25 135 -100 512 -30 154 -55 285 -55 293 0 7 37 -14
87 -49 131 -94 290 -191 426 -261 133 -68 172 -86 572 -266 149 -68 344 -156
435 -197 91 -41 170 -77 177 -80 7 -3 5 13 -7 44 -31 83 -190 487 -199 508
-31 71 -49 125 -41 125 10 0 363 -141 427 -170 24 -11 45 -20 48 -20 3 0 40
-16 82 -36 43 -19 94 -43 113 -51 19 -9 125 -60 235 -114 187 -92 265 -133
412 -218 126 -73 341 -230 419 -306 17 -16 84 -80 150 -141 65 -62 122 -115
126 -119 4 -4 13 -1 21 6 8 8 67 64 132 124 66 61 128 119 139 130 20 19 76
68 126 109 59 48 249 171 380 246 146 84 642 330 665 330 3 0 33 13 67 29 65
29 171 73 385 160 l122 49 -24 -67 c-14 -36 -74 -190 -134 -341 -59 -151 -107
-276 -106 -278 1 -1 37 14 81 34 107 48 120 54 429 194 149 67 299 136 335
152 36 16 110 50 165 75 225 102 506 266 659 387 l39 30 -6 -39 c-8 -47 -9
-51 -43 -220 -14 -71 -28 -141 -30 -155 -3 -14 -23 -117 -45 -229 -22 -112
-40 -206 -41 -210 -3 -26 -2 -26 182 78 30 17 117 66 193 109 76 42 146 82
155 87 9 6 67 38 127 71 101 56 159 88 240 134 17 9 60 36 98 58 37 23 69 42
71 42 5 0 222 138 331 210 148 99 487 349 515 381 3 3 14 12 26 20 122 83 553
486 752 703 34 38 64 67 66 65 2 -2 7 -85 11 -184 4 -99 9 -205 10 -235 1 -30
5 -134 9 -230 4 -96 9 -211 11 -255 2 -44 7 -147 10 -230 4 -82 9 -186 11
-230 1 -44 3 -86 4 -93 0 -7 42 43 94 110 51 68 162 214 247 324 85 110 164
214 176 230 40 52 57 75 99 127 396 505 674 965 879 1457 15 36 33 79 40 95
85 200 231 646 270 823 2 9 19 85 39 167 19 83 37 164 39 180 3 17 10 55 16
85 6 30 13 69 15 85 16 95 0 99 174 -41 86 -70 173 -139 192 -154 192 -153
372 -297 405 -324 144 -117 207 -167 210 -164 1 2 -8 39 -22 83 -13 44 -44
148 -68 230 -25 83 -82 276 -129 430 -46 154 -82 282 -80 284 1 2 13 -8 26
-22 29 -32 161 -177 213 -236 22 -24 65 -72 96 -105 31 -34 91 -101 134 -149
83 -93 87 -94 99 -22 3 22 8 51 10 65 3 14 16 95 30 180 15 85 28 164 30 175
2 11 7 42 10 68 4 27 9 58 11 69 2 11 14 77 25 146 12 70 23 138 26 152 2 14
11 75 20 135 8 61 17 121 19 135 2 14 6 50 9 80 3 30 8 75 11 100 5 50 11 125
21 275 14 202 8 707 -11 895 -2 19 -6 67 -9 105 -4 39 -9 84 -11 100 -2 17 -7
53 -10 80 -3 28 -8 57 -10 65 -2 8 -6 40 -10 70 -3 30 -10 72 -14 93 -5 20 -6
37 -2 37 4 0 131 -72 282 -159 151 -88 275 -158 276 -157 1 1 -11 60 -28 131
-16 72 -31 139 -33 150 -2 11 -13 58 -24 105 -18 73 -85 364 -112 485 -5 22
-12 54 -16 70 -4 17 -8 35 -10 42 -3 16 -27 114 -64 263 -17 69 -33 135 -36
146 -16 82 -156 550 -229 769 -88 263 -234 637 -357 915 -80 179 -293 594
-387 752 -9 15 -38 64 -65 110 -61 103 -288 449 -310 471 -9 8 -16 18 -16 21
0 10 -226 304 -250 326 -3 3 -16 19 -29 35 -22 30 -124 147 -148 171 -7 7 -13
16 -13 19 0 4 33 48 73 99 41 50 90 114 110 141 l36 51 146 -1 c81 0 148 3
150 6 4 5 -3 20 -83 185 l-39 81 52 104 c92 185 168 392 209 574 34 150 43
241 51 485 7 217 14 283 51 500 8 47 16 92 19 100 2 8 6 26 9 40 7 43 66 272
88 345 89 294 250 714 403 1050 44 95 103 251 179 470 42 121 81 229 86 240 5
11 21 56 35 100 15 44 37 109 50 145 39 109 40 113 18 101 -20 -10 -150 -64
-398 -163 -82 -33 -163 -66 -180 -74 -16 -7 -66 -27 -110 -44 -44 -18 -93 -38
-110 -45 -16 -7 -68 -30 -115 -50 -126 -54 -371 -182 -488 -256 -289 -179
-522 -394 -691 -634 -81 -115 -166 -272 -208 -385 -47 -124 -115 -295 -119
-300 -3 -2 -1 36 3 85 15 180 8 599 -11 701 -3 12 -7 39 -10 60 -4 22 -8 46
-11 54 -2 8 -7 42 -10 75 -4 32 -8 62 -10 66 -3 3 -7 26 -10 50 -3 24 -7 51
-10 59 -2 8 -7 33 -10 55 -2 22 -7 51 -10 65 -8 39 -19 109 -31 189 -4 25 -8
55 -10 66 -3 11 -7 36 -10 55 -3 19 -7 42 -9 50 -3 8 -7 38 -10 65 -3 28 -8
58 -11 68 -7 23 -4 28 -189 -258 -82 -126 -194 -300 -250 -385 -56 -85 -125
-192 -154 -237 -30 -46 -55 -83 -57 -83 -2 0 -25 23 -51 52 -75 80 -172 172
-243 229 -150 120 -405 269 -567 330 -66 25 -75 34 -44 44 62 19 159 165 200
301 l19 62 -137 -1 c-125 -1 -273 7 -303 18 -7 2 -30 6 -50 9 -133 20 -290 72
-458 153 -160 78 -229 109 -284 129 -232 85 -557 167 -831 210 -16 2 -39 7
-51 9 -11 2 -45 7 -75 11 -47 6 -70 9 -89 14 -3 0 11 9 30 18 149 76 437 226
443 232 5 4 -6 10 -25 14 -18 3 -44 8 -58 11 -34 7 -139 26 -170 31 -14 3 -47
9 -75 14 -27 6 -66 12 -85 15 -70 9 -114 15 -139 20 -14 2 -48 7 -76 10 -27 4
-57 8 -65 10 -8 2 -46 7 -85 10 -38 4 -81 8 -95 10 -74 11 -168 19 -370 32
-150 10 -697 10 -825 0 -186 -14 -325 -32 -476 -61 -41 -8 -74 -13 -75 -13 -1
3 115 307 132 344 8 17 14 34 14 38 0 4 6 21 14 38 28 64 138 358 135 361 -2
2 -39 -13 -81 -34 -43 -20 -108 -51 -145 -68 -38 -17 -106 -48 -153 -70 -278
-130 -672 -312 -674 -312 -10 0 -266 -146 -317 -180 -32 -22 -62 -40 -68 -40
-5 0 -11 -6 -13 -12 -3 -9 -15 -5 -39 13 -101 76 -374 222 -624 334 -22 10
-72 33 -111 51 -39 18 -100 46 -135 63 -88 40 -221 102 -299 139 -197 92 -260
120 -260 114z"/>
</g>
</svg>
